<?xml version="1.0" encoding="UTF-8" standalone="no"?>
<!DOCTYPE svg PUBLIC "-//W3C//DTD SVG 1.1//EN"
 "http://www.w3.org/Graphics/SVG/1.1/DTD/svg11.dtd">
<!-- Generated by graphviz version 5.0.0 (20220707.1540)
 -->
<!-- Title: dependencies Pages: 1 -->
<svg width="560pt" height="174pt"
 viewBox="0.00 0.00 560.00 173.80" xmlns="http://www.w3.org/2000/svg" xmlns:xlink="http://www.w3.org/1999/xlink">
<g id="graph0" class="graph" transform="scale(1 1) rotate(0) translate(4 169.8)">
<title>dependencies</title>
<polygon fill="white" stroke="transparent" points="-4,4 -4,-169.8 556,-169.8 556,4 -4,4"/>
<text text-anchor="middle" x="276" y="-8.2" font-family="sans-serif" font-size="14.00">dependencies</text>
<g id="clust1" class="cluster">
<title>cluster_AuthModule</title>
<polygon fill="none" stroke="black" stroke-dasharray="1,5" points="8,-32.8 8,-157.8 544,-157.8 544,-32.8 8,-32.8"/>
</g>
<g id="clust3" class="cluster">
<title>cluster_AuthModule_imports</title>
<polygon fill="none" stroke="black" points="16,-40.8 16,-92.8 536,-92.8 536,-40.8 16,-40.8"/>
</g>
<!-- AccessTokenModule -->
<g id="node1" class="node">
<title>AccessTokenModule</title>
<polygon fill="#8dd3c7" stroke="black" points="528.47,-84.8 525.47,-88.8 504.47,-88.8 501.47,-84.8 393.53,-84.8 393.53,-48.8 528.47,-48.8 528.47,-84.8"/>
<text text-anchor="middle" x="461" y="-62.6" font-family="Times,serif" font-size="14.00">AccessTokenModule</text>
</g>
<!-- AuthModule -->
<g id="node5" class="node">
<title>AuthModule</title>
<polygon fill="#8dd3c7" stroke="black" points="311.55,-149.8 308.55,-153.8 287.55,-153.8 284.55,-149.8 224.45,-149.8 224.45,-113.8 311.55,-113.8 311.55,-149.8"/>
<text text-anchor="middle" x="268" y="-127.6" font-family="Times,serif" font-size="14.00">AuthModule</text>
</g>
<!-- AccessTokenModule&#45;&gt;AuthModule -->
<g id="edge1" class="edge">
<title>AccessTokenModule&#45;&gt;AuthModule</title>
<path fill="none" stroke="black" d="M461,-84.91C461,-104.14 461,-131.8 461,-131.8 461,-131.8 321.79,-131.8 321.79,-131.8"/>
<polygon fill="black" stroke="black" points="321.79,-128.3 311.79,-131.8 321.79,-135.3 321.79,-128.3"/>
</g>
<!-- MailModule -->
<g id="node2" class="node">
<title>MailModule</title>
<polygon fill="#8dd3c7" stroke="black" points="375.99,-84.8 372.99,-88.8 351.99,-88.8 348.99,-84.8 290.01,-84.8 290.01,-48.8 375.99,-48.8 375.99,-84.8"/>
<text text-anchor="middle" x="333" y="-62.6" font-family="Times,serif" font-size="14.00">MailModule</text>
</g>
<!-- MailModule&#45;&gt;AuthModule -->
<g id="edge2" class="edge">
<title>MailModule&#45;&gt;AuthModule</title>
<path fill="none" stroke="black" d="M300.89,-84.91C300.89,-84.91 300.89,-103.79 300.89,-103.79"/>
<polygon fill="black" stroke="black" points="297.39,-103.79 300.89,-113.79 304.39,-103.79 297.39,-103.79"/>
</g>
<!-- RefreshTokenModule -->
<g id="node3" class="node">
<title>RefreshTokenModule</title>
<polygon fill="#8dd3c7" stroke="black" points="272.36,-84.8 269.36,-88.8 248.36,-88.8 245.36,-84.8 133.64,-84.8 133.64,-48.8 272.36,-48.8 272.36,-84.8"/>
<text text-anchor="middle" x="203" y="-62.6" font-family="Times,serif" font-size="14.00">RefreshTokenModule</text>
</g>
<!-- RefreshTokenModule&#45;&gt;AuthModule -->
<g id="edge3" class="edge">
<title>RefreshTokenModule&#45;&gt;AuthModule</title>
<path fill="none" stroke="black" d="M248.33,-84.91C248.33,-84.91 248.33,-103.79 248.33,-103.79"/>
<polygon fill="black" stroke="black" points="244.83,-103.79 248.33,-113.79 251.83,-103.79 244.83,-103.79"/>
</g>
<!-- UsersModule -->
<g id="node4" class="node">
<title>UsersModule</title>
<polygon fill="#8dd3c7" stroke="black" points="115.94,-84.8 112.94,-88.8 91.94,-88.8 88.94,-84.8 24.06,-84.8 24.06,-48.8 115.94,-48.8 115.94,-84.8"/>
<text text-anchor="middle" x="70" y="-62.6" font-family="Times,serif" font-size="14.00">UsersModule</text>
</g>
<!-- UsersModule&#45;&gt;AuthModule -->
<g id="edge4" class="edge">
<title>UsersModule&#45;&gt;AuthModule</title>
<path fill="none" stroke="black" d="M70,-84.91C70,-104.14 70,-131.8 70,-131.8 70,-131.8 214.06,-131.8 214.06,-131.8"/>
<polygon fill="black" stroke="black" points="214.06,-135.3 224.06,-131.8 214.06,-128.3 214.06,-135.3"/>
</g>
</g>
</svg>
