<?xml version="1.0" encoding="UTF-8" standalone="no"?>
<!DOCTYPE svg PUBLIC "-//W3C//DTD SVG 1.1//EN"
 "http://www.w3.org/Graphics/SVG/1.1/DTD/svg11.dtd">
<!-- Generated by graphviz version 5.0.0 (20220707.1540)
 -->
<!-- Title: dependencies Pages: 1 -->
<svg width="981pt" height="174pt"
 viewBox="0.00 0.00 981.00 173.80" xmlns="http://www.w3.org/2000/svg" xmlns:xlink="http://www.w3.org/1999/xlink">
<g id="graph0" class="graph" transform="scale(1 1) rotate(0) translate(4 169.8)">
<title>dependencies</title>
<polygon fill="white" stroke="transparent" points="-4,4 -4,-169.8 977,-169.8 977,4 -4,4"/>
<text text-anchor="middle" x="486.5" y="-8.2" font-family="sans-serif" font-size="14.00">dependencies</text>
<g id="clust1" class="cluster">
<title>cluster_AuthModule</title>
<polygon fill="none" stroke="black" stroke-dasharray="1,5" points="8,-32.8 8,-157.8 965,-157.8 965,-32.8 8,-32.8"/>
</g>
<g id="clust6" class="cluster">
<title>cluster_AuthModule_providers</title>
<polygon fill="none" stroke="black" points="643,-40.8 643,-92.8 957,-92.8 957,-40.8 643,-40.8"/>
</g>
<g id="clust3" class="cluster">
<title>cluster_AuthModule_imports</title>
<polygon fill="none" stroke="black" points="16,-40.8 16,-92.8 635,-92.8 635,-40.8 16,-40.8"/>
</g>
<!-- AccessTokenModule -->
<g id="node1" class="node">
<title>AccessTokenModule</title>
<polygon fill="#8dd3c7" stroke="black" points="627.47,-84.8 624.47,-88.8 603.47,-88.8 600.47,-84.8 492.53,-84.8 492.53,-48.8 627.47,-48.8 627.47,-84.8"/>
<text text-anchor="middle" x="560" y="-62.6" font-family="Times,serif" font-size="14.00">AccessTokenModule</text>
</g>
<!-- AuthModule -->
<g id="node6" class="node">
<title>AuthModule</title>
<polygon fill="#8dd3c7" stroke="black" points="475.55,-149.8 472.55,-153.8 451.55,-153.8 448.55,-149.8 388.45,-149.8 388.45,-113.8 475.55,-113.8 475.55,-149.8"/>
<text text-anchor="middle" x="432" y="-127.6" font-family="Times,serif" font-size="14.00">AuthModule</text>
</g>
<!-- AccessTokenModule&#45;&gt;AuthModule -->
<g id="edge1" class="edge">
<title>AccessTokenModule&#45;&gt;AuthModule</title>
<path fill="none" stroke="black" d="M560,-84.83C560,-101.2 560,-122.8 560,-122.8 560,-122.8 485.69,-122.8 485.69,-122.8"/>
<polygon fill="black" stroke="black" points="485.69,-119.3 475.69,-122.8 485.69,-126.3 485.69,-119.3"/>
</g>
<!-- MailModule -->
<g id="node2" class="node">
<title>MailModule</title>
<polygon fill="#8dd3c7" stroke="black" points="474.99,-84.8 471.99,-88.8 450.99,-88.8 447.99,-84.8 389.01,-84.8 389.01,-48.8 474.99,-48.8 474.99,-84.8"/>
<text text-anchor="middle" x="432" y="-62.6" font-family="Times,serif" font-size="14.00">MailModule</text>
</g>
<!-- MailModule&#45;&gt;AuthModule -->
<g id="edge2" class="edge">
<title>MailModule&#45;&gt;AuthModule</title>
<path fill="none" stroke="black" d="M432,-84.91C432,-84.91 432,-103.79 432,-103.79"/>
<polygon fill="black" stroke="black" points="428.5,-103.79 432,-113.79 435.5,-103.79 428.5,-103.79"/>
</g>
<!-- OtpModule -->
<g id="node3" class="node">
<title>OtpModule</title>
<polygon fill="#8dd3c7" stroke="black" points="371.05,-84.8 368.05,-88.8 347.05,-88.8 344.05,-84.8 290.95,-84.8 290.95,-48.8 371.05,-48.8 371.05,-84.8"/>
<text text-anchor="middle" x="331" y="-62.6" font-family="Times,serif" font-size="14.00">OtpModule</text>
</g>
<!-- OtpModule&#45;&gt;AuthModule -->
<g id="edge3" class="edge">
<title>OtpModule&#45;&gt;AuthModule</title>
<path fill="none" stroke="black" d="M331,-84.83C331,-101.2 331,-122.8 331,-122.8 331,-122.8 378.29,-122.8 378.29,-122.8"/>
<polygon fill="black" stroke="black" points="378.29,-126.3 388.29,-122.8 378.29,-119.3 378.29,-126.3"/>
</g>
<!-- RefreshTokenModule -->
<g id="node4" class="node">
<title>RefreshTokenModule</title>
<polygon fill="#8dd3c7" stroke="black" points="272.36,-84.8 269.36,-88.8 248.36,-88.8 245.36,-84.8 133.64,-84.8 133.64,-48.8 272.36,-48.8 272.36,-84.8"/>
<text text-anchor="middle" x="203" y="-62.6" font-family="Times,serif" font-size="14.00">RefreshTokenModule</text>
</g>
<!-- RefreshTokenModule&#45;&gt;AuthModule -->
<g id="edge4" class="edge">
<title>RefreshTokenModule&#45;&gt;AuthModule</title>
<path fill="none" stroke="black" d="M203,-84.91C203,-104.14 203,-131.8 203,-131.8 203,-131.8 378.39,-131.8 378.39,-131.8"/>
<polygon fill="black" stroke="black" points="378.39,-135.3 388.39,-131.8 378.39,-128.3 378.39,-135.3"/>
</g>
<!-- UsersModule -->
<g id="node5" class="node">
<title>UsersModule</title>
<polygon fill="#8dd3c7" stroke="black" points="115.94,-84.8 112.94,-88.8 91.94,-88.8 88.94,-84.8 24.06,-84.8 24.06,-48.8 115.94,-48.8 115.94,-84.8"/>
<text text-anchor="middle" x="70" y="-62.6" font-family="Times,serif" font-size="14.00">UsersModule</text>
</g>
<!-- UsersModule&#45;&gt;AuthModule -->
<g id="edge5" class="edge">
<title>UsersModule&#45;&gt;AuthModule</title>
<path fill="none" stroke="black" d="M70,-85.09C70,-107.01 70,-140.8 70,-140.8 70,-140.8 378.33,-140.8 378.33,-140.8"/>
<polygon fill="black" stroke="black" points="378.33,-144.3 388.33,-140.8 378.33,-137.3 378.33,-144.3"/>
</g>
<!-- GoogleService -->
<g id="node7" class="node">
<title>GoogleService</title>
<ellipse fill="#fdb462" stroke="black" cx="881" cy="-66.8" rx="68.34" ry="18"/>
<text text-anchor="middle" x="881" y="-62.6" font-family="Times,serif" font-size="14.00">GoogleService</text>
</g>
<!-- GoogleService&#45;&gt;AuthModule -->
<g id="edge6" class="edge">
<title>GoogleService&#45;&gt;AuthModule</title>
<path fill="none" stroke="black" d="M881,-85.09C881,-107.01 881,-140.8 881,-140.8 881,-140.8 485.87,-140.8 485.87,-140.8"/>
<polygon fill="black" stroke="black" points="485.87,-137.3 475.87,-140.8 485.87,-144.3 485.87,-137.3"/>
</g>
<!-- GoogleStrategy -->
<g id="node8" class="node">
<title>GoogleStrategy</title>
<ellipse fill="#fdb462" stroke="black" cx="723" cy="-66.8" rx="71.79" ry="18"/>
<text text-anchor="middle" x="723" y="-62.6" font-family="Times,serif" font-size="14.00">GoogleStrategy</text>
</g>
<!-- GoogleStrategy&#45;&gt;AuthModule -->
<g id="edge7" class="edge">
<title>GoogleStrategy&#45;&gt;AuthModule</title>
<path fill="none" stroke="black" d="M723,-84.91C723,-104.14 723,-131.8 723,-131.8 723,-131.8 485.57,-131.8 485.57,-131.8"/>
<polygon fill="black" stroke="black" points="485.57,-128.3 475.57,-131.8 485.57,-135.3 485.57,-128.3"/>
</g>
</g>
</svg>
