<?xml version="1.0" encoding="UTF-8" standalone="no"?>
<!DOCTYPE svg PUBLIC "-//W3C//DTD SVG 1.1//EN"
 "http://www.w3.org/Graphics/SVG/1.1/DTD/svg11.dtd">
<!-- Generated by graphviz version 5.0.0 (20220707.1540)
 -->
<!-- Title: dependencies Pages: 1 -->
<svg width="648pt" height="174pt"
 viewBox="0.00 0.00 648.00 173.80" xmlns="http://www.w3.org/2000/svg" xmlns:xlink="http://www.w3.org/1999/xlink">
<g id="graph0" class="graph" transform="scale(1 1) rotate(0) translate(4 169.8)">
<title>dependencies</title>
<polygon fill="white" stroke="transparent" points="-4,4 -4,-169.8 644,-169.8 644,4 -4,4"/>
<text text-anchor="middle" x="320" y="-8.2" font-family="sans-serif" font-size="14.00">dependencies</text>
<g id="clust1" class="cluster">
<title>cluster_AppModule</title>
<polygon fill="none" stroke="black" stroke-dasharray="1,5" points="8,-32.8 8,-157.8 632,-157.8 632,-32.8 8,-32.8"/>
</g>
<g id="clust3" class="cluster">
<title>cluster_AppModule_imports</title>
<polygon fill="none" stroke="black" points="16,-40.8 16,-92.8 624,-92.8 624,-40.8 16,-40.8"/>
</g>
<!-- AuthModule -->
<g id="node1" class="node">
<title>AuthModule</title>
<polygon fill="#8dd3c7" stroke="black" points="615.55,-84.8 612.55,-88.8 591.55,-88.8 588.55,-84.8 528.45,-84.8 528.45,-48.8 615.55,-48.8 615.55,-84.8"/>
<text text-anchor="middle" x="572" y="-62.6" font-family="Times,serif" font-size="14.00">AuthModule</text>
</g>
<!-- AppModule -->
<g id="node6" class="node">
<title>AppModule</title>
<polygon fill="#8dd3c7" stroke="black" points="377.66,-149.8 374.66,-153.8 353.66,-153.8 350.66,-149.8 294.34,-149.8 294.34,-113.8 377.66,-113.8 377.66,-149.8"/>
<text text-anchor="middle" x="336" y="-127.6" font-family="Times,serif" font-size="14.00">AppModule</text>
</g>
<!-- AuthModule&#45;&gt;AppModule -->
<g id="edge1" class="edge">
<title>AuthModule&#45;&gt;AppModule</title>
<path fill="none" stroke="black" d="M572,-85.08C572,-106.12 572,-137.8 572,-137.8 572,-137.8 387.92,-137.8 387.92,-137.8"/>
<polygon fill="black" stroke="black" points="387.92,-134.3 377.92,-137.8 387.92,-141.3 387.92,-134.3"/>
</g>
<!-- ExamsModule -->
<g id="node2" class="node">
<title>ExamsModule</title>
<polygon fill="#8dd3c7" stroke="black" points="509.66,-84.8 506.66,-88.8 485.66,-88.8 482.66,-84.8 412.34,-84.8 412.34,-48.8 509.66,-48.8 509.66,-84.8"/>
<text text-anchor="middle" x="461" y="-62.6" font-family="Times,serif" font-size="14.00">ExamsModule</text>
</g>
<!-- ExamsModule&#45;&gt;AppModule -->
<g id="edge2" class="edge">
<title>ExamsModule&#45;&gt;AppModule</title>
<path fill="none" stroke="black" d="M461,-84.82C461,-102.17 461,-125.8 461,-125.8 461,-125.8 387.97,-125.8 387.97,-125.8"/>
<polygon fill="black" stroke="black" points="387.97,-122.3 377.97,-125.8 387.97,-129.3 387.97,-122.3"/>
</g>
<!-- QuestionsModule -->
<g id="node3" class="node">
<title>QuestionsModule</title>
<polygon fill="#8dd3c7" stroke="black" points="393.55,-84.8 390.55,-88.8 369.55,-88.8 366.55,-84.8 278.45,-84.8 278.45,-48.8 393.55,-48.8 393.55,-84.8"/>
<text text-anchor="middle" x="336" y="-62.6" font-family="Times,serif" font-size="14.00">QuestionsModule</text>
</g>
<!-- QuestionsModule&#45;&gt;AppModule -->
<g id="edge3" class="edge">
<title>QuestionsModule&#45;&gt;AppModule</title>
<path fill="none" stroke="black" d="M336,-84.91C336,-84.91 336,-103.79 336,-103.79"/>
<polygon fill="black" stroke="black" points="332.5,-103.79 336,-113.79 339.5,-103.79 332.5,-103.79"/>
</g>
<!-- RedisCacheModule -->
<g id="node4" class="node">
<title>RedisCacheModule</title>
<polygon fill="#8dd3c7" stroke="black" points="260.42,-84.8 257.42,-88.8 236.42,-88.8 233.42,-84.8 133.58,-84.8 133.58,-48.8 260.42,-48.8 260.42,-84.8"/>
<text text-anchor="middle" x="197" y="-62.6" font-family="Times,serif" font-size="14.00">RedisCacheModule</text>
</g>
<!-- RedisCacheModule&#45;&gt;AppModule -->
<g id="edge4" class="edge">
<title>RedisCacheModule&#45;&gt;AppModule</title>
<path fill="none" stroke="black" d="M197,-84.82C197,-102.17 197,-125.8 197,-125.8 197,-125.8 284.3,-125.8 284.3,-125.8"/>
<polygon fill="black" stroke="black" points="284.3,-129.3 294.3,-125.8 284.3,-122.3 284.3,-129.3"/>
</g>
<!-- UsersModule -->
<g id="node5" class="node">
<title>UsersModule</title>
<polygon fill="#8dd3c7" stroke="black" points="115.94,-84.8 112.94,-88.8 91.94,-88.8 88.94,-84.8 24.06,-84.8 24.06,-48.8 115.94,-48.8 115.94,-84.8"/>
<text text-anchor="middle" x="70" y="-62.6" font-family="Times,serif" font-size="14.00">UsersModule</text>
</g>
<!-- UsersModule&#45;&gt;AppModule -->
<g id="edge5" class="edge">
<title>UsersModule&#45;&gt;AppModule</title>
<path fill="none" stroke="black" d="M70,-85.08C70,-106.12 70,-137.8 70,-137.8 70,-137.8 284.14,-137.8 284.14,-137.8"/>
<polygon fill="black" stroke="black" points="284.14,-141.3 294.14,-137.8 284.14,-134.3 284.14,-141.3"/>
</g>
</g>
</svg>
