<?xml version="1.0" encoding="UTF-8" standalone="no"?>
<!DOCTYPE svg PUBLIC "-//W3C//DTD SVG 1.1//EN"
 "http://www.w3.org/Graphics/SVG/1.1/DTD/svg11.dtd">
<!-- Generated by graphviz version 5.0.0 (20220707.1540)
 -->
<!-- Title: dependencies Pages: 1 -->
<svg width="314pt" height="247pt"
 viewBox="0.00 0.00 314.00 246.80" xmlns="http://www.w3.org/2000/svg" xmlns:xlink="http://www.w3.org/1999/xlink">
<g id="graph0" class="graph" transform="scale(1 1) rotate(0) translate(4 242.8)">
<title>dependencies</title>
<polygon fill="white" stroke="transparent" points="-4,4 -4,-242.8 310,-242.8 310,4 -4,4"/>
<text text-anchor="middle" x="153" y="-8.2" font-family="sans-serif" font-size="14.00">dependencies</text>
<g id="clust1" class="cluster">
<title>cluster_OtpModule</title>
<polygon fill="none" stroke="black" stroke-dasharray="1,5" points="8,-32.8 8,-230.8 298,-230.8 298,-32.8 8,-32.8"/>
</g>
<g id="clust4" class="cluster">
<title>cluster_OtpModule_exports</title>
<polygon fill="none" stroke="black" points="108,-170.8 108,-222.8 206,-222.8 206,-170.8 108,-170.8"/>
</g>
<g id="clust6" class="cluster">
<title>cluster_OtpModule_providers</title>
<polygon fill="none" stroke="black" points="166,-40.8 166,-92.8 290,-92.8 290,-40.8 166,-40.8"/>
</g>
<g id="clust3" class="cluster">
<title>cluster_OtpModule_imports</title>
<polygon fill="none" stroke="black" points="16,-40.8 16,-92.8 158,-92.8 158,-40.8 16,-40.8"/>
</g>
<!-- RedisCacheModule -->
<g id="node1" class="node">
<title>RedisCacheModule</title>
<polygon fill="#8dd3c7" stroke="black" points="150.42,-84.8 147.42,-88.8 126.42,-88.8 123.42,-84.8 23.58,-84.8 23.58,-48.8 150.42,-48.8 150.42,-84.8"/>
<text text-anchor="middle" x="87" y="-62.6" font-family="Times,serif" font-size="14.00">RedisCacheModule</text>
</g>
<!-- OtpModule -->
<g id="node2" class="node">
<title>OtpModule</title>
<polygon fill="#8dd3c7" stroke="black" points="197.05,-149.8 194.05,-153.8 173.05,-153.8 170.05,-149.8 116.95,-149.8 116.95,-113.8 197.05,-113.8 197.05,-149.8"/>
<text text-anchor="middle" x="157" y="-127.6" font-family="Times,serif" font-size="14.00">OtpModule</text>
</g>
<!-- RedisCacheModule&#45;&gt;OtpModule -->
<g id="edge1" class="edge">
<title>RedisCacheModule&#45;&gt;OtpModule</title>
<path fill="none" stroke="black" d="M133.47,-84.91C133.47,-84.91 133.47,-103.79 133.47,-103.79"/>
<polygon fill="black" stroke="black" points="129.97,-103.79 133.47,-113.79 136.97,-103.79 129.97,-103.79"/>
</g>
<!-- OtpService  -->
<g id="node3" class="node">
<title>OtpService </title>
<polygon fill="#fb8072" stroke="black" points="198.48,-214.8 115.52,-214.8 115.52,-178.8 198.48,-178.8 198.48,-214.8"/>
<text text-anchor="middle" x="157" y="-192.6" font-family="Times,serif" font-size="14.00">OtpService </text>
</g>
<!-- OtpModule&#45;&gt;OtpService  -->
<g id="edge2" class="edge">
<title>OtpModule&#45;&gt;OtpService </title>
<path fill="none" stroke="black" stroke-dasharray="5,2" d="M157,-149.91C157,-149.91 157,-168.79 157,-168.79"/>
<polygon fill="black" stroke="black" points="153.5,-168.79 157,-178.79 160.5,-168.79 153.5,-168.79"/>
</g>
<!-- OtpService -->
<g id="node4" class="node">
<title>OtpService</title>
<ellipse fill="#fdb462" stroke="black" cx="228" cy="-66.8" rx="54.46" ry="18"/>
<text text-anchor="middle" x="228" y="-62.6" font-family="Times,serif" font-size="14.00">OtpService</text>
</g>
<!-- OtpService&#45;&gt;OtpModule -->
<g id="edge3" class="edge">
<title>OtpService&#45;&gt;OtpModule</title>
<path fill="none" stroke="black" d="M185.4,-78.12C185.4,-78.12 185.4,-103.74 185.4,-103.74"/>
<polygon fill="black" stroke="black" points="181.9,-103.74 185.4,-113.74 188.9,-103.74 181.9,-103.74"/>
</g>
</g>
</svg>
