<?xml version="1.0" encoding="UTF-8" standalone="no"?>
<!DOCTYPE svg PUBLIC "-//W3C//DTD SVG 1.1//EN"
 "http://www.w3.org/Graphics/SVG/1.1/DTD/svg11.dtd">
<!-- Generated by graphviz version 5.0.0 (20220707.1540)
 -->
<!-- Title: dependencies Pages: 1 -->
<svg width="2758pt" height="326pt"
 viewBox="0.00 0.00 2758.00 325.80" xmlns="http://www.w3.org/2000/svg" xmlns:xlink="http://www.w3.org/1999/xlink">
<g id="graph0" class="graph" transform="scale(1 1) rotate(0) translate(4 321.8)">
<title>dependencies</title>
<polygon fill="white" stroke="transparent" points="-4,4 -4,-321.8 2754,-321.8 2754,4 -4,4"/>
<text text-anchor="middle" x="1375" y="-8.2" font-family="sans-serif" font-size="14.00">dependencies</text>
<g id="clust1" class="cluster">
<title>cluster_AccessTokenModule</title>
<polygon fill="none" stroke="black" stroke-dasharray="1,5" points="8,-32.8 8,-252.8 432,-252.8 432,-32.8 8,-32.8"/>
</g>
<g id="clust4" class="cluster">
<title>cluster_AccessTokenModule_exports</title>
<polygon fill="none" stroke="black" points="248,-192.8 248,-244.8 400,-244.8 400,-192.8 248,-192.8"/>
</g>
<g id="clust6" class="cluster">
<title>cluster_AccessTokenModule_providers</title>
<polygon fill="none" stroke="black" points="16,-40.8 16,-92.8 424,-92.8 424,-40.8 16,-40.8"/>
</g>
<g id="clust7" class="cluster">
<title>cluster_AppModule</title>
<polygon fill="none" stroke="black" stroke-dasharray="1,5" points="1086,-108.8 1086,-309.8 1604,-309.8 1604,-108.8 1086,-108.8"/>
</g>
<g id="clust9" class="cluster">
<title>cluster_AppModule_imports</title>
<polygon fill="none" stroke="black" points="1094,-116.8 1094,-244.8 1596,-244.8 1596,-116.8 1094,-116.8"/>
</g>
<g id="clust13" class="cluster">
<title>cluster_AuthModule</title>
<polygon fill="none" stroke="black" stroke-dasharray="1,5" points="1910,-108.8 1910,-176.8 2604,-176.8 2604,-108.8 1910,-108.8"/>
</g>
<g id="clust15" class="cluster">
<title>cluster_AuthModule_imports</title>
<polygon fill="none" stroke="black" points="2240,-116.8 2240,-168.8 2596,-168.8 2596,-116.8 2240,-116.8"/>
</g>
<g id="clust18" class="cluster">
<title>cluster_AuthModule_providers</title>
<polygon fill="none" stroke="black" points="1918,-116.8 1918,-168.8 2232,-168.8 2232,-116.8 1918,-116.8"/>
</g>
<g id="clust19" class="cluster">
<title>cluster_ExamsModule</title>
<polygon fill="none" stroke="black" stroke-dasharray="1,5" points="1347,-32.8 1347,-100.8 1633,-100.8 1633,-32.8 1347,-32.8"/>
</g>
<g id="clust21" class="cluster">
<title>cluster_ExamsModule_imports</title>
<polygon fill="none" stroke="black" points="1511,-40.8 1511,-92.8 1625,-92.8 1625,-40.8 1511,-40.8"/>
</g>
<g id="clust24" class="cluster">
<title>cluster_ExamsModule_providers</title>
<polygon fill="none" stroke="black" points="1355,-40.8 1355,-92.8 1503,-92.8 1503,-40.8 1355,-40.8"/>
</g>
<g id="clust25" class="cluster">
<title>cluster_MailModule</title>
<polygon fill="none" stroke="black" stroke-dasharray="1,5" points="2228,-184.8 2228,-252.8 2488,-252.8 2488,-184.8 2228,-184.8"/>
</g>
<g id="clust28" class="cluster">
<title>cluster_MailModule_exports</title>
<polygon fill="none" stroke="black" points="2376,-192.8 2376,-244.8 2480,-244.8 2480,-192.8 2376,-192.8"/>
</g>
<g id="clust30" class="cluster">
<title>cluster_MailModule_providers</title>
<polygon fill="none" stroke="black" points="2236,-192.8 2236,-244.8 2368,-244.8 2368,-192.8 2236,-192.8"/>
</g>
<g id="clust31" class="cluster">
<title>cluster_OtpModule</title>
<polygon fill="none" stroke="black" stroke-dasharray="1,5" points="2496,-184.8 2496,-252.8 2742,-252.8 2742,-184.8 2496,-184.8"/>
</g>
<g id="clust34" class="cluster">
<title>cluster_OtpModule_exports</title>
<polygon fill="none" stroke="black" points="2636,-192.8 2636,-244.8 2734,-244.8 2734,-192.8 2636,-192.8"/>
</g>
<g id="clust36" class="cluster">
<title>cluster_OtpModule_providers</title>
<polygon fill="none" stroke="black" points="2504,-192.8 2504,-244.8 2628,-244.8 2628,-192.8 2504,-192.8"/>
</g>
<g id="clust37" class="cluster">
<title>cluster_PrismaModule</title>
<polygon fill="none" stroke="black" stroke-dasharray="1,5" points="1612,-108.8 1612,-176.8 1902,-176.8 1902,-108.8 1612,-108.8"/>
</g>
<g id="clust40" class="cluster">
<title>cluster_PrismaModule_exports</title>
<polygon fill="none" stroke="black" points="1778,-116.8 1778,-168.8 1894,-168.8 1894,-116.8 1778,-116.8"/>
</g>
<g id="clust42" class="cluster">
<title>cluster_PrismaModule_providers</title>
<polygon fill="none" stroke="black" points="1620,-116.8 1620,-168.8 1770,-168.8 1770,-116.8 1620,-116.8"/>
</g>
<g id="clust43" class="cluster">
<title>cluster_QuestionsModule</title>
<polygon fill="none" stroke="black" stroke-dasharray="1,5" points="1149,-32.8 1149,-100.8 1339,-100.8 1339,-32.8 1149,-32.8"/>
</g>
<g id="clust48" class="cluster">
<title>cluster_QuestionsModule_providers</title>
<polygon fill="none" stroke="black" points="1157,-40.8 1157,-92.8 1331,-92.8 1331,-40.8 1157,-40.8"/>
</g>
<g id="clust49" class="cluster">
<title>cluster_RedisCacheModule</title>
<polygon fill="none" stroke="black" stroke-dasharray="1,5" points="440,-184.8 440,-252.8 796,-252.8 796,-184.8 440,-184.8"/>
</g>
<g id="clust52" class="cluster">
<title>cluster_RedisCacheModule_exports</title>
<polygon fill="none" stroke="black" points="644,-192.8 644,-244.8 788,-244.8 788,-192.8 644,-192.8"/>
</g>
<g id="clust54" class="cluster">
<title>cluster_RedisCacheModule_providers</title>
<polygon fill="none" stroke="black" points="448,-192.8 448,-244.8 636,-244.8 636,-192.8 448,-192.8"/>
</g>
<g id="clust55" class="cluster">
<title>cluster_RefreshTokenModule</title>
<polygon fill="none" stroke="black" stroke-dasharray="1,5" points="1992,-32.8 1992,-100.8 2592,-100.8 2592,-32.8 1992,-32.8"/>
</g>
<g id="clust58" class="cluster">
<title>cluster_RefreshTokenModule_exports</title>
<polygon fill="none" stroke="black" points="2428,-40.8 2428,-92.8 2584,-92.8 2584,-40.8 2428,-40.8"/>
</g>
<g id="clust60" class="cluster">
<title>cluster_RefreshTokenModule_providers</title>
<polygon fill="none" stroke="black" points="2000,-40.8 2000,-92.8 2420,-92.8 2420,-40.8 2000,-40.8"/>
</g>
<g id="clust61" class="cluster">
<title>cluster_UsersModule</title>
<polygon fill="none" stroke="black" stroke-dasharray="1,5" points="804,-184.8 804,-252.8 1078,-252.8 1078,-184.8 804,-184.8"/>
</g>
<g id="clust64" class="cluster">
<title>cluster_UsersModule_exports</title>
<polygon fill="none" stroke="black" points="960,-192.8 960,-244.8 1070,-244.8 1070,-192.8 960,-192.8"/>
</g>
<g id="clust66" class="cluster">
<title>cluster_UsersModule_providers</title>
<polygon fill="none" stroke="black" points="812,-192.8 812,-244.8 952,-244.8 952,-192.8 812,-192.8"/>
</g>
<!-- AccessTokenService  -->
<g id="node1" class="node">
<title>AccessTokenService </title>
<polygon fill="#fb8072" stroke="black" points="392.39,-236.8 255.61,-236.8 255.61,-200.8 392.39,-200.8 392.39,-236.8"/>
<text text-anchor="middle" x="324" y="-214.6" font-family="Times,serif" font-size="14.00">AccessTokenService </text>
</g>
<!-- AccessTokenModule -->
<g id="node2" class="node">
<title>AccessTokenModule</title>
<polygon fill="#8dd3c7" stroke="black" points="391.47,-160.8 388.47,-164.8 367.47,-164.8 364.47,-160.8 256.53,-160.8 256.53,-124.8 391.47,-124.8 391.47,-160.8"/>
<text text-anchor="middle" x="324" y="-138.6" font-family="Times,serif" font-size="14.00">AccessTokenModule</text>
</g>
<!-- AccessTokenModule&#45;&gt;AccessTokenService  -->
<g id="edge1" class="edge">
<title>AccessTokenModule&#45;&gt;AccessTokenService </title>
<path fill="none" stroke="black" stroke-dasharray="5,2" d="M324,-160.81C324,-160.81 324,-190.65 324,-190.65"/>
<polygon fill="black" stroke="black" points="320.5,-190.65 324,-200.65 327.5,-190.65 320.5,-190.65"/>
</g>
<!-- AuthModule -->
<g id="node5" class="node">
<title>AuthModule</title>
<polygon fill="#8dd3c7" stroke="black" points="1587.55,-236.8 1584.55,-240.8 1563.55,-240.8 1560.55,-236.8 1500.45,-236.8 1500.45,-200.8 1587.55,-200.8 1587.55,-236.8"/>
<text text-anchor="middle" x="1544" y="-214.6" font-family="Times,serif" font-size="14.00">AuthModule</text>
</g>
<!-- AccessTokenModule&#45;&gt;AuthModule -->
<g id="edge9" class="edge">
<title>AccessTokenModule&#45;&gt;AuthModule</title>
<path fill="none" stroke="black" d="M391.58,-133.8C577.29,-133.8 1081.74,-133.8 1081.74,-133.8 1081.74,-133.8 1081.74,-209.8 1081.74,-209.8 1081.74,-209.8 1490.09,-209.8 1490.09,-209.8"/>
<polygon fill="black" stroke="black" points="1490.09,-213.3 1500.09,-209.8 1490.09,-206.3 1490.09,-213.3"/>
</g>
<!-- AccessTokenService -->
<g id="node3" class="node">
<title>AccessTokenService</title>
<ellipse fill="#fdb462" stroke="black" cx="324" cy="-66.8" rx="92.02" ry="18"/>
<text text-anchor="middle" x="324" y="-62.6" font-family="Times,serif" font-size="14.00">AccessTokenService</text>
</g>
<!-- AccessTokenService&#45;&gt;AccessTokenModule -->
<g id="edge2" class="edge">
<title>AccessTokenService&#45;&gt;AccessTokenModule</title>
<path fill="none" stroke="black" d="M324,-84.81C324,-84.81 324,-114.65 324,-114.65"/>
<polygon fill="black" stroke="black" points="320.5,-114.65 324,-124.65 327.5,-114.65 320.5,-114.65"/>
</g>
<!-- AccessTokenStrategy -->
<g id="node4" class="node">
<title>AccessTokenStrategy</title>
<ellipse fill="#fdb462" stroke="black" cx="119" cy="-66.8" rx="95.48" ry="18"/>
<text text-anchor="middle" x="119" y="-62.6" font-family="Times,serif" font-size="14.00">AccessTokenStrategy</text>
</g>
<!-- AccessTokenStrategy&#45;&gt;AccessTokenModule -->
<g id="edge3" class="edge">
<title>AccessTokenStrategy&#45;&gt;AccessTokenModule</title>
<path fill="none" stroke="black" d="M119,-84.81C119,-107.29 119,-142.8 119,-142.8 119,-142.8 246.31,-142.8 246.31,-142.8"/>
<polygon fill="black" stroke="black" points="246.31,-146.3 256.31,-142.8 246.31,-139.3 246.31,-146.3"/>
</g>
<!-- AppModule -->
<g id="node10" class="node">
<title>AppModule</title>
<polygon fill="#8dd3c7" stroke="black" points="1470.66,-301.8 1467.66,-305.8 1446.66,-305.8 1443.66,-301.8 1387.34,-301.8 1387.34,-265.8 1470.66,-265.8 1470.66,-301.8"/>
<text text-anchor="middle" x="1429" y="-279.6" font-family="Times,serif" font-size="14.00">AppModule</text>
</g>
<!-- AuthModule&#45;&gt;AppModule -->
<g id="edge4" class="edge">
<title>AuthModule&#45;&gt;AppModule</title>
<path fill="none" stroke="black" d="M1500.26,-227.8C1472.95,-227.8 1442.94,-227.8 1442.94,-227.8 1442.94,-227.8 1442.94,-255.77 1442.94,-255.77"/>
<polygon fill="black" stroke="black" points="1439.44,-255.77 1442.94,-265.77 1446.44,-255.77 1439.44,-255.77"/>
</g>
<!-- ExamsModule -->
<g id="node6" class="node">
<title>ExamsModule</title>
<polygon fill="#8dd3c7" stroke="black" points="1477.66,-160.8 1474.66,-164.8 1453.66,-164.8 1450.66,-160.8 1380.34,-160.8 1380.34,-124.8 1477.66,-124.8 1477.66,-160.8"/>
<text text-anchor="middle" x="1429" y="-138.6" font-family="Times,serif" font-size="14.00">ExamsModule</text>
</g>
<!-- ExamsModule&#45;&gt;AppModule -->
<g id="edge5" class="edge">
<title>ExamsModule&#45;&gt;AppModule</title>
<path fill="none" stroke="black" d="M1415.06,-160.94C1415.06,-160.94 1415.06,-255.73 1415.06,-255.73"/>
<polygon fill="black" stroke="black" points="1411.56,-255.72 1415.06,-265.73 1418.56,-255.73 1411.56,-255.72"/>
</g>
<!-- QuestionsModule -->
<g id="node7" class="node">
<title>QuestionsModule</title>
<polygon fill="#8dd3c7" stroke="black" points="1361.55,-160.8 1358.55,-164.8 1337.55,-164.8 1334.55,-160.8 1246.45,-160.8 1246.45,-124.8 1361.55,-124.8 1361.55,-160.8"/>
<text text-anchor="middle" x="1304" y="-138.6" font-family="Times,serif" font-size="14.00">QuestionsModule</text>
</g>
<!-- QuestionsModule&#45;&gt;AppModule -->
<g id="edge6" class="edge">
<title>QuestionsModule&#45;&gt;AppModule</title>
<path fill="none" stroke="black" d="M1304,-161.01C1304,-197.86 1304,-277.8 1304,-277.8 1304,-277.8 1377.03,-277.8 1377.03,-277.8"/>
<polygon fill="black" stroke="black" points="1377.03,-281.3 1387.03,-277.8 1377.03,-274.3 1377.03,-281.3"/>
</g>
<!-- RedisCacheModule -->
<g id="node8" class="node">
<title>RedisCacheModule</title>
<polygon fill="#8dd3c7" stroke="black" points="1228.42,-160.8 1225.42,-164.8 1204.42,-164.8 1201.42,-160.8 1101.58,-160.8 1101.58,-124.8 1228.42,-124.8 1228.42,-160.8"/>
<text text-anchor="middle" x="1165" y="-138.6" font-family="Times,serif" font-size="14.00">RedisCacheModule</text>
</g>
<!-- RedisCacheModule&#45;&gt;AppModule -->
<g id="edge7" class="edge">
<title>RedisCacheModule&#45;&gt;AppModule</title>
<path fill="none" stroke="black" d="M1165,-160.83C1165,-200.08 1165,-289.8 1165,-289.8 1165,-289.8 1377.17,-289.8 1377.17,-289.8"/>
<polygon fill="black" stroke="black" points="1377.17,-293.3 1387.17,-289.8 1377.17,-286.3 1377.17,-293.3"/>
</g>
<!-- OtpModule -->
<g id="node12" class="node">
<title>OtpModule</title>
<polygon fill="#8dd3c7" stroke="black" points="2588.05,-160.8 2585.05,-164.8 2564.05,-164.8 2561.05,-160.8 2507.95,-160.8 2507.95,-124.8 2588.05,-124.8 2588.05,-160.8"/>
<text text-anchor="middle" x="2548" y="-138.6" font-family="Times,serif" font-size="14.00">OtpModule</text>
</g>
<!-- RedisCacheModule&#45;&gt;OtpModule -->
<g id="edge20" class="edge">
<title>RedisCacheModule&#45;&gt;OtpModule</title>
<path fill="none" stroke="black" d="M1196.79,-124.68C1196.79,-110.02 1196.79,-91.8 1196.79,-91.8 1196.79,-91.8 2542.06,-91.8 2542.06,-91.8 2542.06,-91.8 2542.06,-114.68 2542.06,-114.68"/>
<polygon fill="black" stroke="black" points="2538.56,-114.68 2542.06,-124.68 2545.56,-114.68 2538.56,-114.68"/>
</g>
<!-- RedisCacheService  -->
<g id="node25" class="node">
<title>RedisCacheService </title>
<polygon fill="#fb8072" stroke="black" points="780.35,-236.8 651.65,-236.8 651.65,-200.8 780.35,-200.8 780.35,-236.8"/>
<text text-anchor="middle" x="716" y="-214.6" font-family="Times,serif" font-size="14.00">RedisCacheService </text>
</g>
<!-- RedisCacheModule&#45;&gt;RedisCacheService  -->
<g id="edge27" class="edge">
<title>RedisCacheModule&#45;&gt;RedisCacheService </title>
<path fill="none" stroke="black" stroke-dasharray="5,2" d="M1101.62,-151.8C977.85,-151.8 716,-151.8 716,-151.8 716,-151.8 716,-190.49 716,-190.49"/>
<polygon fill="black" stroke="black" points="712.5,-190.49 716,-200.49 719.5,-190.49 712.5,-190.49"/>
</g>
<!-- UsersModule -->
<g id="node9" class="node">
<title>UsersModule</title>
<polygon fill="#8dd3c7" stroke="black" points="1587.94,-160.8 1584.94,-164.8 1563.94,-164.8 1560.94,-160.8 1496.06,-160.8 1496.06,-124.8 1587.94,-124.8 1587.94,-160.8"/>
<text text-anchor="middle" x="1542" y="-138.6" font-family="Times,serif" font-size="14.00">UsersModule</text>
</g>
<!-- UsersModule&#45;&gt;AuthModule -->
<g id="edge13" class="edge">
<title>UsersModule&#45;&gt;AuthModule</title>
<path fill="none" stroke="black" d="M1535.22,-160.81C1535.22,-160.81 1535.22,-190.65 1535.22,-190.65"/>
<polygon fill="black" stroke="black" points="1531.72,-190.65 1535.22,-200.65 1538.72,-190.65 1531.72,-190.65"/>
</g>
<!-- UsersModule&#45;&gt;AppModule -->
<g id="edge8" class="edge">
<title>UsersModule&#45;&gt;AppModule</title>
<path fill="none" stroke="black" d="M1495.9,-148.8C1491.97,-148.8 1489.46,-148.8 1489.46,-148.8 1489.46,-148.8 1489.46,-283.8 1489.46,-283.8 1489.46,-283.8 1480.99,-283.8 1480.99,-283.8"/>
<polygon fill="black" stroke="black" points="1480.99,-280.3 1470.99,-283.8 1480.99,-287.3 1480.99,-280.3"/>
</g>
<!-- UsersService  -->
<g id="node30" class="node">
<title>UsersService </title>
<polygon fill="#fb8072" stroke="black" points="1061.86,-236.8 968.14,-236.8 968.14,-200.8 1061.86,-200.8 1061.86,-236.8"/>
<text text-anchor="middle" x="1015" y="-214.6" font-family="Times,serif" font-size="14.00">UsersService </text>
</g>
<!-- UsersModule&#45;&gt;UsersService  -->
<g id="edge33" class="edge">
<title>UsersModule&#45;&gt;UsersService </title>
<path fill="none" stroke="black" stroke-dasharray="5,2" d="M1496.02,-136.8C1488.79,-136.8 1483.64,-136.8 1483.64,-136.8 1483.64,-136.8 1483.64,-218.8 1483.64,-218.8 1483.64,-218.8 1072.08,-218.8 1072.08,-218.8"/>
<polygon fill="black" stroke="black" points="1072.08,-215.3 1062.08,-218.8 1072.08,-222.3 1072.08,-215.3"/>
</g>
<!-- MailModule -->
<g id="node11" class="node">
<title>MailModule</title>
<polygon fill="#8dd3c7" stroke="black" points="2489.99,-160.8 2486.99,-164.8 2465.99,-164.8 2462.99,-160.8 2404.01,-160.8 2404.01,-124.8 2489.99,-124.8 2489.99,-160.8"/>
<text text-anchor="middle" x="2447" y="-138.6" font-family="Times,serif" font-size="14.00">MailModule</text>
</g>
<!-- MailModule&#45;&gt;AuthModule -->
<g id="edge10" class="edge">
<title>MailModule&#45;&gt;AuthModule</title>
<path fill="none" stroke="black" d="M2420.99,-160.99C2420.99,-169.08 2420.99,-176.8 2420.99,-176.8 2420.99,-176.8 1552.72,-176.8 1552.72,-176.8 1552.72,-176.8 1552.72,-190.74 1552.72,-190.74"/>
<polygon fill="black" stroke="black" points="1549.22,-190.74 1552.72,-200.74 1556.22,-190.74 1549.22,-190.74"/>
</g>
<!-- MailService  -->
<g id="node18" class="node">
<title>MailService </title>
<polygon fill="#fb8072" stroke="black" points="2471.92,-236.8 2384.08,-236.8 2384.08,-200.8 2471.92,-200.8 2471.92,-236.8"/>
<text text-anchor="middle" x="2428" y="-214.6" font-family="Times,serif" font-size="14.00">MailService </text>
</g>
<!-- MailModule&#45;&gt;MailService  -->
<g id="edge18" class="edge">
<title>MailModule&#45;&gt;MailService </title>
<path fill="none" stroke="black" stroke-dasharray="5,2" d="M2454.97,-160.81C2454.97,-160.81 2454.97,-190.65 2454.97,-190.65"/>
<polygon fill="black" stroke="black" points="2451.47,-190.65 2454.97,-200.65 2458.47,-190.65 2451.47,-190.65"/>
</g>
<!-- OtpModule&#45;&gt;AuthModule -->
<g id="edge11" class="edge">
<title>OtpModule&#45;&gt;AuthModule</title>
<path fill="none" stroke="black" d="M2537.11,-160.86C2537.11,-172.24 2537.11,-184.8 2537.11,-184.8 2537.11,-184.8 1570.22,-184.8 1570.22,-184.8 1570.22,-184.8 1570.22,-190.61 1570.22,-190.61"/>
<polygon fill="black" stroke="black" points="1566.72,-190.61 1570.22,-200.61 1573.72,-190.61 1566.72,-190.61"/>
</g>
<!-- OtpService  -->
<g id="node20" class="node">
<title>OtpService </title>
<polygon fill="#fb8072" stroke="black" points="2726.48,-236.8 2643.52,-236.8 2643.52,-200.8 2726.48,-200.8 2726.48,-236.8"/>
<text text-anchor="middle" x="2685" y="-214.6" font-family="Times,serif" font-size="14.00">OtpService </text>
</g>
<!-- OtpModule&#45;&gt;OtpService  -->
<g id="edge21" class="edge">
<title>OtpModule&#45;&gt;OtpService </title>
<path fill="none" stroke="black" stroke-dasharray="5,2" d="M2588.36,-142.8C2628.78,-142.8 2685,-142.8 2685,-142.8 2685,-142.8 2685,-190.79 2685,-190.79"/>
<polygon fill="black" stroke="black" points="2681.5,-190.79 2685,-200.79 2688.5,-190.79 2681.5,-190.79"/>
</g>
<!-- RefreshTokenModule -->
<g id="node13" class="node">
<title>RefreshTokenModule</title>
<polygon fill="#8dd3c7" stroke="black" points="2386.36,-160.8 2383.36,-164.8 2362.36,-164.8 2359.36,-160.8 2247.64,-160.8 2247.64,-124.8 2386.36,-124.8 2386.36,-160.8"/>
<text text-anchor="middle" x="2317" y="-138.6" font-family="Times,serif" font-size="14.00">RefreshTokenModule</text>
</g>
<!-- RefreshTokenModule&#45;&gt;AuthModule -->
<g id="edge12" class="edge">
<title>RefreshTokenModule&#45;&gt;AuthModule</title>
<path fill="none" stroke="black" d="M2247.42,-142.8C2239.44,-142.8 2234.09,-142.8 2234.09,-142.8 2234.09,-142.8 2234.09,-227.8 2234.09,-227.8 2234.09,-227.8 1597.69,-227.8 1597.69,-227.8"/>
<polygon fill="black" stroke="black" points="1597.69,-224.3 1587.69,-227.8 1597.69,-231.3 1597.69,-224.3"/>
</g>
<!-- RefreshTokenService  -->
<g id="node27" class="node">
<title>RefreshTokenService </title>
<polygon fill="#fb8072" stroke="black" points="2576.28,-84.8 2435.72,-84.8 2435.72,-48.8 2576.28,-48.8 2576.28,-84.8"/>
<text text-anchor="middle" x="2506" y="-62.6" font-family="Times,serif" font-size="14.00">RefreshTokenService </text>
</g>
<!-- RefreshTokenModule&#45;&gt;RefreshTokenService  -->
<g id="edge29" class="edge">
<title>RefreshTokenModule&#45;&gt;RefreshTokenService </title>
<path fill="none" stroke="black" stroke-dasharray="5,2" d="M2351.71,-124.77C2351.71,-117.95 2351.71,-111.8 2351.71,-111.8 2351.71,-111.8 2462.8,-111.8 2462.8,-111.8 2462.8,-111.8 2462.8,-94.84 2462.8,-94.84"/>
<polygon fill="black" stroke="black" points="2466.3,-94.84 2462.8,-84.84 2459.3,-94.84 2466.3,-94.84"/>
</g>
<!-- GoogleService -->
<g id="node14" class="node">
<title>GoogleService</title>
<ellipse fill="#fdb462" stroke="black" cx="2156" cy="-142.8" rx="68.34" ry="18"/>
<text text-anchor="middle" x="2156" y="-138.6" font-family="Times,serif" font-size="14.00">GoogleService</text>
</g>
<!-- GoogleService&#45;&gt;AuthModule -->
<g id="edge14" class="edge">
<title>GoogleService&#45;&gt;AuthModule</title>
<path fill="none" stroke="black" d="M2156,-160.81C2156,-183.29 2156,-218.8 2156,-218.8 2156,-218.8 1598.01,-218.8 1598.01,-218.8"/>
<polygon fill="black" stroke="black" points="1598.01,-215.3 1588.01,-218.8 1598.01,-222.3 1598.01,-215.3"/>
</g>
<!-- GoogleStrategy -->
<g id="node15" class="node">
<title>GoogleStrategy</title>
<ellipse fill="#fdb462" stroke="black" cx="1998" cy="-142.8" rx="71.79" ry="18"/>
<text text-anchor="middle" x="1998" y="-138.6" font-family="Times,serif" font-size="14.00">GoogleStrategy</text>
</g>
<!-- GoogleStrategy&#45;&gt;AuthModule -->
<g id="edge15" class="edge">
<title>GoogleStrategy&#45;&gt;AuthModule</title>
<path fill="none" stroke="black" d="M1998,-161.11C1998,-180.95 1998,-209.8 1998,-209.8 1998,-209.8 1597.94,-209.8 1597.94,-209.8"/>
<polygon fill="black" stroke="black" points="1597.94,-206.3 1587.94,-209.8 1597.94,-213.3 1597.94,-206.3"/>
</g>
<!-- PrismaModule -->
<g id="node16" class="node">
<title>PrismaModule</title>
<polygon fill="#8dd3c7" stroke="black" points="1617.44,-84.8 1614.44,-88.8 1593.44,-88.8 1590.44,-84.8 1518.56,-84.8 1518.56,-48.8 1617.44,-48.8 1617.44,-84.8"/>
<text text-anchor="middle" x="1568" y="-62.6" font-family="Times,serif" font-size="14.00">PrismaModule</text>
</g>
<!-- PrismaModule&#45;&gt;ExamsModule -->
<g id="edge16" class="edge">
<title>PrismaModule&#45;&gt;ExamsModule</title>
<path fill="none" stroke="black" d="M1553.25,-84.99C1553.25,-99.98 1553.25,-118.8 1553.25,-118.8 1553.25,-118.8 1445.28,-118.8 1445.28,-118.8 1445.28,-118.8 1445.28,-119.38 1445.28,-119.38"/>
<polygon fill="black" stroke="black" points="1441.78,-114.61 1445.28,-124.61 1448.78,-114.61 1441.78,-114.61"/>
</g>
<!-- PrismaModule&#45;&gt;QuestionsModule -->
<g id="edge25" class="edge">
<title>PrismaModule&#45;&gt;QuestionsModule</title>
<path fill="none" stroke="black" d="M1536.01,-85.04C1536.01,-92.23 1536.01,-98.8 1536.01,-98.8 1536.01,-98.8 1342.2,-98.8 1342.2,-98.8 1342.2,-98.8 1342.2,-114.65 1342.2,-114.65"/>
<polygon fill="black" stroke="black" points="1338.7,-114.65 1342.2,-124.65 1345.7,-114.65 1338.7,-114.65"/>
</g>
<!-- PrismaModule&#45;&gt;UsersModule -->
<g id="edge32" class="edge">
<title>PrismaModule&#45;&gt;UsersModule</title>
<path fill="none" stroke="black" d="M1570.48,-84.81C1570.48,-84.81 1570.48,-114.65 1570.48,-114.65"/>
<polygon fill="black" stroke="black" points="1566.98,-114.65 1570.48,-124.65 1573.98,-114.65 1566.98,-114.65"/>
</g>
<!-- PrismaService  -->
<g id="node22" class="node">
<title>PrismaService </title>
<polygon fill="#fb8072" stroke="black" points="1886.37,-160.8 1785.63,-160.8 1785.63,-124.8 1886.37,-124.8 1886.37,-160.8"/>
<text text-anchor="middle" x="1836" y="-138.6" font-family="Times,serif" font-size="14.00">PrismaService </text>
</g>
<!-- PrismaModule&#45;&gt;PrismaService  -->
<g id="edge23" class="edge">
<title>PrismaModule&#45;&gt;PrismaService </title>
<path fill="none" stroke="black" stroke-dasharray="5,2" d="M1617.47,-66.8C1694.9,-66.8 1836,-66.8 1836,-66.8 1836,-66.8 1836,-114.79 1836,-114.79"/>
<polygon fill="black" stroke="black" points="1832.5,-114.79 1836,-124.79 1839.5,-114.79 1832.5,-114.79"/>
</g>
<!-- ExamsService -->
<g id="node17" class="node">
<title>ExamsService</title>
<ellipse fill="#fdb462" stroke="black" cx="1429" cy="-66.8" rx="66.05" ry="18"/>
<text text-anchor="middle" x="1429" y="-62.6" font-family="Times,serif" font-size="14.00">ExamsService</text>
</g>
<!-- ExamsService&#45;&gt;ExamsModule -->
<g id="edge17" class="edge">
<title>ExamsService&#45;&gt;ExamsModule</title>
<path fill="none" stroke="black" d="M1412.72,-84.43C1412.72,-84.43 1412.72,-114.74 1412.72,-114.74"/>
<polygon fill="black" stroke="black" points="1409.22,-114.74 1412.72,-124.74 1416.22,-114.74 1409.22,-114.74"/>
</g>
<!-- MailService -->
<g id="node19" class="node">
<title>MailService</title>
<ellipse fill="#fdb462" stroke="black" cx="2302" cy="-218.8" rx="58.46" ry="18"/>
<text text-anchor="middle" x="2302" y="-214.6" font-family="Times,serif" font-size="14.00">MailService</text>
</g>
<!-- MailService&#45;&gt;MailModule -->
<g id="edge19" class="edge">
<title>MailService&#45;&gt;MailModule</title>
<path fill="none" stroke="black" d="M2303.9,-200.74C2303.9,-196.31 2303.9,-192.8 2303.9,-192.8 2303.9,-192.8 2437.98,-192.8 2437.98,-192.8 2437.98,-192.8 2437.98,-170.85 2437.98,-170.85"/>
<polygon fill="black" stroke="black" points="2441.48,-170.85 2437.98,-160.85 2434.48,-170.85 2441.48,-170.85"/>
</g>
<!-- OtpService -->
<g id="node21" class="node">
<title>OtpService</title>
<ellipse fill="#fdb462" stroke="black" cx="2566" cy="-218.8" rx="54.46" ry="18"/>
<text text-anchor="middle" x="2566" y="-214.6" font-family="Times,serif" font-size="14.00">OtpService</text>
</g>
<!-- OtpService&#45;&gt;OtpModule -->
<g id="edge22" class="edge">
<title>OtpService&#45;&gt;OtpModule</title>
<path fill="none" stroke="black" d="M2562.69,-200.79C2562.69,-200.79 2562.69,-170.95 2562.69,-170.95"/>
<polygon fill="black" stroke="black" points="2566.19,-170.95 2562.69,-160.95 2559.19,-170.95 2566.19,-170.95"/>
</g>
<!-- PrismaService -->
<g id="node23" class="node">
<title>PrismaService</title>
<ellipse fill="#fdb462" stroke="black" cx="1695" cy="-142.8" rx="66.64" ry="18"/>
<text text-anchor="middle" x="1695" y="-138.6" font-family="Times,serif" font-size="14.00">PrismaService</text>
</g>
<!-- PrismaService&#45;&gt;PrismaModule -->
<g id="edge24" class="edge">
<title>PrismaService&#45;&gt;PrismaModule</title>
<path fill="none" stroke="black" d="M1627.77,-142.8C1613.43,-142.8 1602.5,-142.8 1602.5,-142.8 1602.5,-142.8 1602.5,-94.81 1602.5,-94.81"/>
<polygon fill="black" stroke="black" points="1606,-94.81 1602.5,-84.81 1599,-94.81 1606,-94.81"/>
</g>
<!-- QuestionsService -->
<g id="node24" class="node">
<title>QuestionsService</title>
<ellipse fill="#fdb462" stroke="black" cx="1244" cy="-66.8" rx="78.74" ry="18"/>
<text text-anchor="middle" x="1244" y="-62.6" font-family="Times,serif" font-size="14.00">QuestionsService</text>
</g>
<!-- QuestionsService&#45;&gt;QuestionsModule -->
<g id="edge26" class="edge">
<title>QuestionsService&#45;&gt;QuestionsModule</title>
<path fill="none" stroke="black" d="M1284.42,-82.55C1284.42,-82.55 1284.42,-114.67 1284.42,-114.67"/>
<polygon fill="black" stroke="black" points="1280.92,-114.67 1284.42,-124.67 1287.92,-114.67 1280.92,-114.67"/>
</g>
<!-- RedisCacheService -->
<g id="node26" class="node">
<title>RedisCacheService</title>
<ellipse fill="#fdb462" stroke="black" cx="542" cy="-218.8" rx="86.24" ry="18"/>
<text text-anchor="middle" x="542" y="-214.6" font-family="Times,serif" font-size="14.00">RedisCacheService</text>
</g>
<!-- RedisCacheService&#45;&gt;RedisCacheModule -->
<g id="edge28" class="edge">
<title>RedisCacheService&#45;&gt;RedisCacheModule</title>
<path fill="none" stroke="black" d="M542,-200.79C542,-178.31 542,-142.8 542,-142.8 542,-142.8 1091.55,-142.8 1091.55,-142.8"/>
<polygon fill="black" stroke="black" points="1091.55,-146.3 1101.55,-142.8 1091.55,-139.3 1091.55,-146.3"/>
</g>
<!-- RefreshTokenService -->
<g id="node28" class="node">
<title>RefreshTokenService</title>
<ellipse fill="#fdb462" stroke="black" cx="2317" cy="-66.8" rx="94.89" ry="18"/>
<text text-anchor="middle" x="2317" y="-62.6" font-family="Times,serif" font-size="14.00">RefreshTokenService</text>
</g>
<!-- RefreshTokenService&#45;&gt;RefreshTokenModule -->
<g id="edge30" class="edge">
<title>RefreshTokenService&#45;&gt;RefreshTokenModule</title>
<path fill="none" stroke="black" d="M2317,-84.81C2317,-84.81 2317,-114.65 2317,-114.65"/>
<polygon fill="black" stroke="black" points="2313.5,-114.65 2317,-124.65 2320.5,-114.65 2313.5,-114.65"/>
</g>
<!-- RefreshTokenStrategy -->
<g id="node29" class="node">
<title>RefreshTokenStrategy</title>
<ellipse fill="#fdb462" stroke="black" cx="2106" cy="-66.8" rx="97.84" ry="18"/>
<text text-anchor="middle" x="2106" y="-62.6" font-family="Times,serif" font-size="14.00">RefreshTokenStrategy</text>
</g>
<!-- RefreshTokenStrategy&#45;&gt;RefreshTokenModule -->
<g id="edge31" class="edge">
<title>RefreshTokenStrategy&#45;&gt;RefreshTokenModule</title>
<path fill="none" stroke="black" d="M2145.75,-83.58C2145.75,-93.76 2145.75,-104.8 2145.75,-104.8 2145.75,-104.8 2282.29,-104.8 2282.29,-104.8 2282.29,-104.8 2282.29,-114.69 2282.29,-114.69"/>
<polygon fill="black" stroke="black" points="2278.79,-114.69 2282.29,-124.69 2285.79,-114.69 2278.79,-114.69"/>
</g>
<!-- UsersService -->
<g id="node31" class="node">
<title>UsersService</title>
<ellipse fill="#fdb462" stroke="black" cx="882" cy="-218.8" rx="61.97" ry="18"/>
<text text-anchor="middle" x="882" y="-214.6" font-family="Times,serif" font-size="14.00">UsersService</text>
</g>
<!-- UsersService&#45;&gt;UsersModule -->
<g id="edge34" class="edge">
<title>UsersService&#45;&gt;UsersModule</title>
<path fill="none" stroke="black" d="M882,-200.75C882,-186.43 882,-168.8 882,-168.8 882,-168.8 1517.72,-168.8 1517.72,-168.8 1517.72,-168.8 1517.72,-168.01 1517.72,-168.01"/>
<polygon fill="black" stroke="black" points="1521.22,-170.86 1517.72,-160.86 1514.22,-170.86 1521.22,-170.86"/>
</g>
</g>
</svg>
