<?xml version="1.0" encoding="UTF-8" standalone="no"?>
<!DOCTYPE svg PUBLIC "-//W3C//DTD SVG 1.1//EN"
 "http://www.w3.org/Graphics/SVG/1.1/DTD/svg11.dtd">
<!-- Generated by graphviz version 5.0.0 (20220707.1540)
 -->
<!-- Title: dependencies Pages: 1 -->
<svg width="1883pt" height="326pt"
 viewBox="0.00 0.00 1883.00 325.80" xmlns="http://www.w3.org/2000/svg" xmlns:xlink="http://www.w3.org/1999/xlink">
<g id="graph0" class="graph" transform="scale(1 1) rotate(0) translate(4 321.8)">
<title>dependencies</title>
<polygon fill="white" stroke="transparent" points="-4,4 -4,-321.8 1879,-321.8 1879,4 -4,4"/>
<text text-anchor="middle" x="937.5" y="-8.2" font-family="sans-serif" font-size="14.00">dependencies</text>
<g id="clust1" class="cluster">
<title>cluster_AccessTokenModule</title>
<polygon fill="none" stroke="black" stroke-dasharray="1,5" points="1443,-32.8 1443,-252.8 1867,-252.8 1867,-32.8 1443,-32.8"/>
</g>
<g id="clust4" class="cluster">
<title>cluster_AccessTokenModule_exports</title>
<polygon fill="none" stroke="black" points="1478,-192.8 1478,-244.8 1630,-244.8 1630,-192.8 1478,-192.8"/>
</g>
<g id="clust6" class="cluster">
<title>cluster_AccessTokenModule_providers</title>
<polygon fill="none" stroke="black" points="1451,-40.8 1451,-92.8 1859,-92.8 1859,-40.8 1451,-40.8"/>
</g>
<g id="clust7" class="cluster">
<title>cluster_AppModule</title>
<polygon fill="none" stroke="black" stroke-dasharray="1,5" points="558,-32.8 558,-309.8 798,-309.8 798,-32.8 558,-32.8"/>
</g>
<g id="clust9" class="cluster">
<title>cluster_AppModule_imports</title>
<polygon fill="none" stroke="black" points="578,-40.8 578,-244.8 790,-244.8 790,-40.8 578,-40.8"/>
</g>
<g id="clust13" class="cluster">
<title>cluster_AuthModule</title>
<polygon fill="none" stroke="black" stroke-dasharray="1,5" points="1104,-108.8 1104,-176.8 1274,-176.8 1274,-108.8 1104,-108.8"/>
</g>
<g id="clust15" class="cluster">
<title>cluster_AuthModule_imports</title>
<polygon fill="none" stroke="black" points="1112,-116.8 1112,-168.8 1266,-168.8 1266,-116.8 1112,-116.8"/>
</g>
<g id="clust19" class="cluster">
<title>cluster_MailModule</title>
<polygon fill="none" stroke="black" stroke-dasharray="1,5" points="8,-184.8 8,-252.8 268,-252.8 268,-184.8 8,-184.8"/>
</g>
<g id="clust22" class="cluster">
<title>cluster_MailModule_exports</title>
<polygon fill="none" stroke="black" points="156,-192.8 156,-244.8 260,-244.8 260,-192.8 156,-192.8"/>
</g>
<g id="clust24" class="cluster">
<title>cluster_MailModule_providers</title>
<polygon fill="none" stroke="black" points="16,-192.8 16,-244.8 148,-244.8 148,-192.8 16,-192.8"/>
</g>
<g id="clust25" class="cluster">
<title>cluster_PrismaModule</title>
<polygon fill="none" stroke="black" stroke-dasharray="1,5" points="806,-108.8 806,-176.8 1096,-176.8 1096,-108.8 806,-108.8"/>
</g>
<g id="clust28" class="cluster">
<title>cluster_PrismaModule_exports</title>
<polygon fill="none" stroke="black" points="972,-116.8 972,-168.8 1088,-168.8 1088,-116.8 972,-116.8"/>
</g>
<g id="clust30" class="cluster">
<title>cluster_PrismaModule_providers</title>
<polygon fill="none" stroke="black" points="814,-116.8 814,-168.8 964,-168.8 964,-116.8 814,-116.8"/>
</g>
<g id="clust31" class="cluster">
<title>cluster_RefreshTokenModule</title>
<polygon fill="none" stroke="black" stroke-dasharray="1,5" points="835,-32.8 835,-100.8 1435,-100.8 1435,-32.8 835,-32.8"/>
</g>
<g id="clust34" class="cluster">
<title>cluster_RefreshTokenModule_exports</title>
<polygon fill="none" stroke="black" points="1271,-40.8 1271,-92.8 1427,-92.8 1427,-40.8 1271,-40.8"/>
</g>
<g id="clust36" class="cluster">
<title>cluster_RefreshTokenModule_providers</title>
<polygon fill="none" stroke="black" points="843,-40.8 843,-92.8 1263,-92.8 1263,-40.8 843,-40.8"/>
</g>
<g id="clust37" class="cluster">
<title>cluster_UsersModule</title>
<polygon fill="none" stroke="black" stroke-dasharray="1,5" points="276,-184.8 276,-252.8 550,-252.8 550,-184.8 276,-184.8"/>
</g>
<g id="clust40" class="cluster">
<title>cluster_UsersModule_exports</title>
<polygon fill="none" stroke="black" points="432,-192.8 432,-244.8 542,-244.8 542,-192.8 432,-192.8"/>
</g>
<g id="clust42" class="cluster">
<title>cluster_UsersModule_providers</title>
<polygon fill="none" stroke="black" points="284,-192.8 284,-244.8 424,-244.8 424,-192.8 284,-192.8"/>
</g>
<!-- AccessTokenService  -->
<g id="node1" class="node">
<title>AccessTokenService </title>
<polygon fill="#fb8072" stroke="black" points="1622.39,-236.8 1485.61,-236.8 1485.61,-200.8 1622.39,-200.8 1622.39,-236.8"/>
<text text-anchor="middle" x="1554" y="-214.6" font-family="Times,serif" font-size="14.00">AccessTokenService </text>
</g>
<!-- AccessTokenModule -->
<g id="node2" class="node">
<title>AccessTokenModule</title>
<polygon fill="#8dd3c7" stroke="black" points="1621.47,-160.8 1618.47,-164.8 1597.47,-164.8 1594.47,-160.8 1486.53,-160.8 1486.53,-124.8 1621.47,-124.8 1621.47,-160.8"/>
<text text-anchor="middle" x="1554" y="-138.6" font-family="Times,serif" font-size="14.00">AccessTokenModule</text>
</g>
<!-- AccessTokenModule&#45;&gt;AccessTokenService  -->
<g id="edge1" class="edge">
<title>AccessTokenModule&#45;&gt;AccessTokenService </title>
<path fill="none" stroke="black" stroke-dasharray="5,2" d="M1554,-160.81C1554,-160.81 1554,-190.65 1554,-190.65"/>
<polygon fill="black" stroke="black" points="1550.5,-190.65 1554,-200.65 1557.5,-190.65 1550.5,-190.65"/>
</g>
<!-- AuthModule -->
<g id="node5" class="node">
<title>AuthModule</title>
<polygon fill="#8dd3c7" stroke="black" points="779.55,-236.8 776.55,-240.8 755.55,-240.8 752.55,-236.8 692.45,-236.8 692.45,-200.8 779.55,-200.8 779.55,-236.8"/>
<text text-anchor="middle" x="736" y="-214.6" font-family="Times,serif" font-size="14.00">AuthModule</text>
</g>
<!-- AccessTokenModule&#45;&gt;AuthModule -->
<g id="edge8" class="edge">
<title>AccessTokenModule&#45;&gt;AuthModule</title>
<path fill="none" stroke="black" d="M1486.48,-136.8C1461.47,-136.8 1439.08,-136.8 1439.08,-136.8 1439.08,-136.8 1439.08,-224.8 1439.08,-224.8 1439.08,-224.8 789.71,-224.8 789.71,-224.8"/>
<polygon fill="black" stroke="black" points="789.72,-221.3 779.71,-224.8 789.71,-228.3 789.72,-221.3"/>
</g>
<!-- AccessTokenService -->
<g id="node3" class="node">
<title>AccessTokenService</title>
<ellipse fill="#fdb462" stroke="black" cx="1759" cy="-66.8" rx="92.02" ry="18"/>
<text text-anchor="middle" x="1759" y="-62.6" font-family="Times,serif" font-size="14.00">AccessTokenService</text>
</g>
<!-- AccessTokenService&#45;&gt;AccessTokenModule -->
<g id="edge2" class="edge">
<title>AccessTokenService&#45;&gt;AccessTokenModule</title>
<path fill="none" stroke="black" d="M1759,-84.81C1759,-107.29 1759,-142.8 1759,-142.8 1759,-142.8 1631.69,-142.8 1631.69,-142.8"/>
<polygon fill="black" stroke="black" points="1631.69,-139.3 1621.69,-142.8 1631.69,-146.3 1631.69,-139.3"/>
</g>
<!-- AccessTokenStrategy -->
<g id="node4" class="node">
<title>AccessTokenStrategy</title>
<ellipse fill="#fdb462" stroke="black" cx="1554" cy="-66.8" rx="95.48" ry="18"/>
<text text-anchor="middle" x="1554" y="-62.6" font-family="Times,serif" font-size="14.00">AccessTokenStrategy</text>
</g>
<!-- AccessTokenStrategy&#45;&gt;AccessTokenModule -->
<g id="edge3" class="edge">
<title>AccessTokenStrategy&#45;&gt;AccessTokenModule</title>
<path fill="none" stroke="black" d="M1554,-84.81C1554,-84.81 1554,-114.65 1554,-114.65"/>
<polygon fill="black" stroke="black" points="1550.5,-114.65 1554,-124.65 1557.5,-114.65 1550.5,-114.65"/>
</g>
<!-- AppModule -->
<g id="node9" class="node">
<title>AppModule</title>
<polygon fill="#8dd3c7" stroke="black" points="689.66,-301.8 686.66,-305.8 665.66,-305.8 662.66,-301.8 606.34,-301.8 606.34,-265.8 689.66,-265.8 689.66,-301.8"/>
<text text-anchor="middle" x="648" y="-279.6" font-family="Times,serif" font-size="14.00">AppModule</text>
</g>
<!-- AuthModule&#45;&gt;AppModule -->
<g id="edge4" class="edge">
<title>AuthModule&#45;&gt;AppModule</title>
<path fill="none" stroke="black" d="M692.21,-227.8C685.86,-227.8 681.42,-227.8 681.42,-227.8 681.42,-227.8 681.42,-255.77 681.42,-255.77"/>
<polygon fill="black" stroke="black" points="677.92,-255.77 681.42,-265.77 684.92,-255.77 677.92,-255.77"/>
</g>
<!-- MailModule -->
<g id="node6" class="node">
<title>MailModule</title>
<polygon fill="#8dd3c7" stroke="black" points="671.99,-160.8 668.99,-164.8 647.99,-164.8 644.99,-160.8 586.01,-160.8 586.01,-124.8 671.99,-124.8 671.99,-160.8"/>
<text text-anchor="middle" x="629" y="-138.6" font-family="Times,serif" font-size="14.00">MailModule</text>
</g>
<!-- MailModule&#45;&gt;AuthModule -->
<g id="edge9" class="edge">
<title>MailModule&#45;&gt;AuthModule</title>
<path fill="none" stroke="black" d="M650.05,-160.81C650.05,-183.29 650.05,-218.8 650.05,-218.8 650.05,-218.8 682.27,-218.8 682.27,-218.8"/>
<polygon fill="black" stroke="black" points="682.27,-222.3 692.27,-218.8 682.27,-215.3 682.27,-222.3"/>
</g>
<!-- MailModule&#45;&gt;AppModule -->
<g id="edge5" class="edge">
<title>MailModule&#45;&gt;AppModule</title>
<path fill="none" stroke="black" d="M628.11,-160.94C628.11,-160.94 628.11,-255.73 628.11,-255.73"/>
<polygon fill="black" stroke="black" points="624.61,-255.72 628.11,-265.73 631.61,-255.73 624.61,-255.72"/>
</g>
<!-- MailService  -->
<g id="node11" class="node">
<title>MailService </title>
<polygon fill="#fb8072" stroke="black" points="251.92,-236.8 164.08,-236.8 164.08,-200.8 251.92,-200.8 251.92,-236.8"/>
<text text-anchor="middle" x="208" y="-214.6" font-family="Times,serif" font-size="14.00">MailService </text>
</g>
<!-- MailModule&#45;&gt;MailService  -->
<g id="edge12" class="edge">
<title>MailModule&#45;&gt;MailService </title>
<path fill="none" stroke="black" stroke-dasharray="5,2" d="M585.92,-148.8C478.63,-148.8 208,-148.8 208,-148.8 208,-148.8 208,-190.77 208,-190.77"/>
<polygon fill="black" stroke="black" points="204.5,-190.77 208,-200.77 211.5,-190.77 204.5,-190.77"/>
</g>
<!-- PrismaModule -->
<g id="node7" class="node">
<title>PrismaModule</title>
<polygon fill="#8dd3c7" stroke="black" points="782.44,-84.8 779.44,-88.8 758.44,-88.8 755.44,-84.8 683.56,-84.8 683.56,-48.8 782.44,-48.8 782.44,-84.8"/>
<text text-anchor="middle" x="733" y="-62.6" font-family="Times,serif" font-size="14.00">PrismaModule</text>
</g>
<!-- UsersModule -->
<g id="node8" class="node">
<title>UsersModule</title>
<polygon fill="#8dd3c7" stroke="black" points="781.94,-160.8 778.94,-164.8 757.94,-164.8 754.94,-160.8 690.06,-160.8 690.06,-124.8 781.94,-124.8 781.94,-160.8"/>
<text text-anchor="middle" x="736" y="-138.6" font-family="Times,serif" font-size="14.00">UsersModule</text>
</g>
<!-- PrismaModule&#45;&gt;UsersModule -->
<g id="edge19" class="edge">
<title>PrismaModule&#45;&gt;UsersModule</title>
<path fill="none" stroke="black" d="M720.76,-84.81C720.76,-84.81 720.76,-114.65 720.76,-114.65"/>
<polygon fill="black" stroke="black" points="717.26,-114.65 720.76,-124.65 724.26,-114.65 717.26,-114.65"/>
</g>
<!-- PrismaModule&#45;&gt;AppModule -->
<g id="edge6" class="edge">
<title>PrismaModule&#45;&gt;AppModule</title>
<path fill="none" stroke="black" d="M683.61,-66.8C679.4,-66.8 676.71,-66.8 676.71,-66.8 676.71,-66.8 676.71,-255.67 676.71,-255.67"/>
<polygon fill="black" stroke="black" points="673.21,-255.67 676.71,-265.67 680.21,-255.67 673.21,-255.67"/>
</g>
<!-- PrismaService  -->
<g id="node13" class="node">
<title>PrismaService </title>
<polygon fill="#fb8072" stroke="black" points="1080.37,-160.8 979.63,-160.8 979.63,-124.8 1080.37,-124.8 1080.37,-160.8"/>
<text text-anchor="middle" x="1030" y="-138.6" font-family="Times,serif" font-size="14.00">PrismaService </text>
</g>
<!-- PrismaModule&#45;&gt;PrismaService  -->
<g id="edge14" class="edge">
<title>PrismaModule&#45;&gt;PrismaService </title>
<path fill="none" stroke="black" stroke-dasharray="5,2" d="M751.24,-84.84C751.24,-97.36 751.24,-111.8 751.24,-111.8 751.24,-111.8 1002.18,-111.8 1002.18,-111.8 1002.18,-111.8 1002.18,-114.77 1002.18,-114.77"/>
<polygon fill="black" stroke="black" points="998.68,-114.77 1002.18,-124.77 1005.68,-114.77 998.68,-114.77"/>
</g>
<!-- UsersModule&#45;&gt;AuthModule -->
<g id="edge11" class="edge">
<title>UsersModule&#45;&gt;AuthModule</title>
<path fill="none" stroke="black" d="M750.59,-160.81C750.59,-160.81 750.59,-190.65 750.59,-190.65"/>
<polygon fill="black" stroke="black" points="747.09,-190.65 750.59,-200.65 754.09,-190.65 747.09,-190.65"/>
</g>
<!-- UsersModule&#45;&gt;AppModule -->
<g id="edge7" class="edge">
<title>UsersModule&#45;&gt;AppModule</title>
<path fill="none" stroke="black" d="M690.04,-148.8C683.57,-148.8 679.07,-148.8 679.07,-148.8 679.07,-148.8 679.07,-255.59 679.07,-255.59"/>
<polygon fill="black" stroke="black" points="675.57,-255.59 679.07,-265.59 682.57,-255.59 675.57,-255.59"/>
</g>
<!-- UsersService  -->
<g id="node18" class="node">
<title>UsersService </title>
<polygon fill="#fb8072" stroke="black" points="533.86,-236.8 440.14,-236.8 440.14,-200.8 533.86,-200.8 533.86,-236.8"/>
<text text-anchor="middle" x="487" y="-214.6" font-family="Times,serif" font-size="14.00">UsersService </text>
</g>
<!-- UsersModule&#45;&gt;UsersService  -->
<g id="edge20" class="edge">
<title>UsersModule&#45;&gt;UsersService </title>
<path fill="none" stroke="black" stroke-dasharray="5,2" d="M690.23,-136.8C681.15,-136.8 674.35,-136.8 674.35,-136.8 674.35,-136.8 674.35,-209.8 674.35,-209.8 674.35,-209.8 543.79,-209.8 543.79,-209.8"/>
<polygon fill="black" stroke="black" points="543.79,-206.3 533.79,-209.8 543.79,-213.3 543.79,-206.3"/>
</g>
<!-- RefreshTokenModule -->
<g id="node10" class="node">
<title>RefreshTokenModule</title>
<polygon fill="#8dd3c7" stroke="black" points="1258.36,-160.8 1255.36,-164.8 1234.36,-164.8 1231.36,-160.8 1119.64,-160.8 1119.64,-124.8 1258.36,-124.8 1258.36,-160.8"/>
<text text-anchor="middle" x="1189" y="-138.6" font-family="Times,serif" font-size="14.00">RefreshTokenModule</text>
</g>
<!-- RefreshTokenModule&#45;&gt;AuthModule -->
<g id="edge10" class="edge">
<title>RefreshTokenModule&#45;&gt;AuthModule</title>
<path fill="none" stroke="black" d="M1189,-160.83C1189,-181.57 1189,-212.8 1189,-212.8 1189,-212.8 789.85,-212.8 789.85,-212.8"/>
<polygon fill="black" stroke="black" points="789.85,-209.3 779.85,-212.8 789.85,-216.3 789.85,-209.3"/>
</g>
<!-- RefreshTokenService  -->
<g id="node15" class="node">
<title>RefreshTokenService </title>
<polygon fill="#fb8072" stroke="black" points="1419.28,-84.8 1278.72,-84.8 1278.72,-48.8 1419.28,-48.8 1419.28,-84.8"/>
<text text-anchor="middle" x="1349" y="-62.6" font-family="Times,serif" font-size="14.00">RefreshTokenService </text>
</g>
<!-- RefreshTokenModule&#45;&gt;RefreshTokenService  -->
<g id="edge16" class="edge">
<title>RefreshTokenModule&#45;&gt;RefreshTokenService </title>
<path fill="none" stroke="black" stroke-dasharray="5,2" d="M1258.71,-148.8C1301.83,-148.8 1349,-148.8 1349,-148.8 1349,-148.8 1349,-95 1349,-95"/>
<polygon fill="black" stroke="black" points="1352.5,-95 1349,-85 1345.5,-95 1352.5,-95"/>
</g>
<!-- MailService -->
<g id="node12" class="node">
<title>MailService</title>
<ellipse fill="#fdb462" stroke="black" cx="82" cy="-218.8" rx="58.46" ry="18"/>
<text text-anchor="middle" x="82" y="-214.6" font-family="Times,serif" font-size="14.00">MailService</text>
</g>
<!-- MailService&#45;&gt;MailModule -->
<g id="edge13" class="edge">
<title>MailService&#45;&gt;MailModule</title>
<path fill="none" stroke="black" d="M82,-200.6C82,-176.44 82,-136.8 82,-136.8 82,-136.8 575.62,-136.8 575.62,-136.8"/>
<polygon fill="black" stroke="black" points="575.62,-140.3 585.62,-136.8 575.62,-133.3 575.62,-140.3"/>
</g>
<!-- PrismaService -->
<g id="node14" class="node">
<title>PrismaService</title>
<ellipse fill="#fdb462" stroke="black" cx="889" cy="-142.8" rx="66.64" ry="18"/>
<text text-anchor="middle" x="889" y="-138.6" font-family="Times,serif" font-size="14.00">PrismaService</text>
</g>
<!-- PrismaService&#45;&gt;PrismaModule -->
<g id="edge15" class="edge">
<title>PrismaService&#45;&gt;PrismaModule</title>
<path fill="none" stroke="black" d="M836.63,-131.59C836.63,-110.45 836.63,-66.8 836.63,-66.8 836.63,-66.8 792.39,-66.8 792.39,-66.8"/>
<polygon fill="black" stroke="black" points="792.39,-63.3 782.39,-66.8 792.39,-70.3 792.39,-63.3"/>
</g>
<!-- RefreshTokenService -->
<g id="node16" class="node">
<title>RefreshTokenService</title>
<ellipse fill="#fdb462" stroke="black" cx="1160" cy="-66.8" rx="94.89" ry="18"/>
<text text-anchor="middle" x="1160" y="-62.6" font-family="Times,serif" font-size="14.00">RefreshTokenService</text>
</g>
<!-- RefreshTokenService&#45;&gt;RefreshTokenModule -->
<g id="edge17" class="edge">
<title>RefreshTokenService&#45;&gt;RefreshTokenModule</title>
<path fill="none" stroke="black" d="M1209.65,-82.18C1209.65,-82.18 1209.65,-114.77 1209.65,-114.77"/>
<polygon fill="black" stroke="black" points="1206.15,-114.77 1209.65,-124.77 1213.15,-114.77 1206.15,-114.77"/>
</g>
<!-- RefreshTokenStrategy -->
<g id="node17" class="node">
<title>RefreshTokenStrategy</title>
<ellipse fill="#fdb462" stroke="black" cx="949" cy="-66.8" rx="97.84" ry="18"/>
<text text-anchor="middle" x="949" y="-62.6" font-family="Times,serif" font-size="14.00">RefreshTokenStrategy</text>
</g>
<!-- RefreshTokenStrategy&#45;&gt;RefreshTokenModule -->
<g id="edge18" class="edge">
<title>RefreshTokenStrategy&#45;&gt;RefreshTokenModule</title>
<path fill="none" stroke="black" d="M1024.55,-78.35C1024.55,-87.52 1024.55,-98.8 1024.55,-98.8 1024.55,-98.8 1164.61,-98.8 1164.61,-98.8 1164.61,-98.8 1164.61,-114.65 1164.61,-114.65"/>
<polygon fill="black" stroke="black" points="1161.11,-114.65 1164.61,-124.65 1168.11,-114.65 1161.11,-114.65"/>
</g>
<!-- UsersService -->
<g id="node19" class="node">
<title>UsersService</title>
<ellipse fill="#fdb462" stroke="black" cx="354" cy="-218.8" rx="61.97" ry="18"/>
<text text-anchor="middle" x="354" y="-214.6" font-family="Times,serif" font-size="14.00">UsersService</text>
</g>
<!-- UsersService&#45;&gt;UsersModule -->
<g id="edge21" class="edge">
<title>UsersService&#45;&gt;UsersModule</title>
<path fill="none" stroke="black" d="M354,-200.69C354,-190.9 354,-180.8 354,-180.8 354,-180.8 721.41,-180.8 721.41,-180.8 721.41,-180.8 721.41,-170.91 721.41,-170.91"/>
<polygon fill="black" stroke="black" points="724.91,-170.91 721.41,-160.91 717.91,-170.91 724.91,-170.91"/>
</g>
</g>
</svg>
