<?xml version="1.0" encoding="UTF-8" standalone="no"?>
<!DOCTYPE svg PUBLIC "-//W3C//DTD SVG 1.1//EN"
 "http://www.w3.org/Graphics/SVG/1.1/DTD/svg11.dtd">
<!-- Generated by graphviz version 5.0.0 (20220707.1540)
 -->
<!-- Title: dependencies Pages: 1 -->
<svg width="336pt" height="174pt"
 viewBox="0.00 0.00 336.00 173.80" xmlns="http://www.w3.org/2000/svg" xmlns:xlink="http://www.w3.org/1999/xlink">
<g id="graph0" class="graph" transform="scale(1 1) rotate(0) translate(4 169.8)">
<title>dependencies</title>
<polygon fill="white" stroke="transparent" points="-4,4 -4,-169.8 332,-169.8 332,4 -4,4"/>
<text text-anchor="middle" x="164" y="-8.2" font-family="sans-serif" font-size="14.00">dependencies</text>
<g id="clust1" class="cluster">
<title>cluster_QuestionsModule</title>
<polygon fill="none" stroke="black" stroke-dasharray="1,5" points="8,-32.8 8,-157.8 320,-157.8 320,-32.8 8,-32.8"/>
</g>
<g id="clust3" class="cluster">
<title>cluster_QuestionsModule_imports</title>
<polygon fill="none" stroke="black" points="198,-40.8 198,-92.8 312,-92.8 312,-40.8 198,-40.8"/>
</g>
<g id="clust6" class="cluster">
<title>cluster_QuestionsModule_providers</title>
<polygon fill="none" stroke="black" points="16,-40.8 16,-92.8 190,-92.8 190,-40.8 16,-40.8"/>
</g>
<!-- PrismaModule -->
<g id="node1" class="node">
<title>PrismaModule</title>
<polygon fill="#8dd3c7" stroke="black" points="304.44,-84.8 301.44,-88.8 280.44,-88.8 277.44,-84.8 205.56,-84.8 205.56,-48.8 304.44,-48.8 304.44,-84.8"/>
<text text-anchor="middle" x="255" y="-62.6" font-family="Times,serif" font-size="14.00">PrismaModule</text>
</g>
<!-- QuestionsModule -->
<g id="node2" class="node">
<title>QuestionsModule</title>
<polygon fill="#8dd3c7" stroke="black" points="235.55,-149.8 232.55,-153.8 211.55,-153.8 208.55,-149.8 120.45,-149.8 120.45,-113.8 235.55,-113.8 235.55,-149.8"/>
<text text-anchor="middle" x="178" y="-127.6" font-family="Times,serif" font-size="14.00">QuestionsModule</text>
</g>
<!-- PrismaModule&#45;&gt;QuestionsModule -->
<g id="edge1" class="edge">
<title>PrismaModule&#45;&gt;QuestionsModule</title>
<path fill="none" stroke="black" d="M220.78,-84.91C220.78,-84.91 220.78,-103.79 220.78,-103.79"/>
<polygon fill="black" stroke="black" points="217.28,-103.79 220.78,-113.79 224.28,-103.79 217.28,-103.79"/>
</g>
<!-- QuestionsService -->
<g id="node3" class="node">
<title>QuestionsService</title>
<ellipse fill="#fdb462" stroke="black" cx="103" cy="-66.8" rx="78.74" ry="18"/>
<text text-anchor="middle" x="103" y="-62.6" font-family="Times,serif" font-size="14.00">QuestionsService</text>
</g>
<!-- QuestionsService&#45;&gt;QuestionsModule -->
<g id="edge2" class="edge">
<title>QuestionsService&#45;&gt;QuestionsModule</title>
<path fill="none" stroke="black" d="M150.92,-81.23C150.92,-81.23 150.92,-103.69 150.92,-103.69"/>
<polygon fill="black" stroke="black" points="147.42,-103.69 150.92,-113.69 154.42,-103.69 147.42,-103.69"/>
</g>
</g>
</svg>
