<?xml version="1.0" encoding="UTF-8" standalone="no"?>
<!DOCTYPE svg PUBLIC "-//W3C//DTD SVG 1.1//EN"
 "http://www.w3.org/Graphics/SVG/1.1/DTD/svg11.dtd">
<!-- Generated by graphviz version 5.0.0 (20220707.1540)
 -->
<!-- Title: dependencies Pages: 1 -->
<svg width="448pt" height="247pt"
 viewBox="0.00 0.00 448.00 246.80" xmlns="http://www.w3.org/2000/svg" xmlns:xlink="http://www.w3.org/1999/xlink">
<g id="graph0" class="graph" transform="scale(1 1) rotate(0) translate(4 242.8)">
<title>dependencies</title>
<polygon fill="white" stroke="transparent" points="-4,4 -4,-242.8 444,-242.8 444,4 -4,4"/>
<text text-anchor="middle" x="220" y="-8.2" font-family="sans-serif" font-size="14.00">dependencies</text>
<g id="clust1" class="cluster">
<title>cluster_AccessTokenModule</title>
<polygon fill="none" stroke="black" stroke-dasharray="1,5" points="8,-32.8 8,-230.8 432,-230.8 432,-32.8 8,-32.8"/>
</g>
<g id="clust4" class="cluster">
<title>cluster_AccessTokenModule_exports</title>
<polygon fill="none" stroke="black" points="145,-170.8 145,-222.8 297,-222.8 297,-170.8 145,-170.8"/>
</g>
<g id="clust6" class="cluster">
<title>cluster_AccessTokenModule_providers</title>
<polygon fill="none" stroke="black" points="16,-40.8 16,-92.8 424,-92.8 424,-40.8 16,-40.8"/>
</g>
<!-- AccessTokenService  -->
<g id="node1" class="node">
<title>AccessTokenService </title>
<polygon fill="#fb8072" stroke="black" points="289.39,-214.8 152.61,-214.8 152.61,-178.8 289.39,-178.8 289.39,-214.8"/>
<text text-anchor="middle" x="221" y="-192.6" font-family="Times,serif" font-size="14.00">AccessTokenService </text>
</g>
<!-- AccessTokenModule -->
<g id="node2" class="node">
<title>AccessTokenModule</title>
<polygon fill="#8dd3c7" stroke="black" points="288.47,-149.8 285.47,-153.8 264.47,-153.8 261.47,-149.8 153.53,-149.8 153.53,-113.8 288.47,-113.8 288.47,-149.8"/>
<text text-anchor="middle" x="221" y="-127.6" font-family="Times,serif" font-size="14.00">AccessTokenModule</text>
</g>
<!-- AccessTokenModule&#45;&gt;AccessTokenService  -->
<g id="edge1" class="edge">
<title>AccessTokenModule&#45;&gt;AccessTokenService </title>
<path fill="none" stroke="black" stroke-dasharray="5,2" d="M221,-149.91C221,-149.91 221,-168.79 221,-168.79"/>
<polygon fill="black" stroke="black" points="217.5,-168.79 221,-178.79 224.5,-168.79 217.5,-168.79"/>
</g>
<!-- AccessTokenService -->
<g id="node3" class="node">
<title>AccessTokenService</title>
<ellipse fill="#fdb462" stroke="black" cx="324" cy="-66.8" rx="92.02" ry="18"/>
<text text-anchor="middle" x="324" y="-62.6" font-family="Times,serif" font-size="14.00">AccessTokenService</text>
</g>
<!-- AccessTokenService&#45;&gt;AccessTokenModule -->
<g id="edge2" class="edge">
<title>AccessTokenService&#45;&gt;AccessTokenModule</title>
<path fill="none" stroke="black" d="M260.24,-79.95C260.24,-79.95 260.24,-103.49 260.24,-103.49"/>
<polygon fill="black" stroke="black" points="256.74,-103.49 260.24,-113.49 263.74,-103.49 256.74,-103.49"/>
</g>
<!-- AccessTokenStrategy -->
<g id="node4" class="node">
<title>AccessTokenStrategy</title>
<ellipse fill="#fdb462" stroke="black" cx="119" cy="-66.8" rx="95.48" ry="18"/>
<text text-anchor="middle" x="119" y="-62.6" font-family="Times,serif" font-size="14.00">AccessTokenStrategy</text>
</g>
<!-- AccessTokenStrategy&#45;&gt;AccessTokenModule -->
<g id="edge3" class="edge">
<title>AccessTokenStrategy&#45;&gt;AccessTokenModule</title>
<path fill="none" stroke="black" d="M183.88,-80.27C183.88,-80.27 183.88,-103.66 183.88,-103.66"/>
<polygon fill="black" stroke="black" points="180.38,-103.66 183.88,-113.66 187.38,-103.66 180.38,-103.66"/>
</g>
</g>
</svg>
