<?xml version="1.0" encoding="UTF-8" standalone="no"?>
<!DOCTYPE svg PUBLIC "-//W3C//DTD SVG 1.1//EN"
 "http://www.w3.org/Graphics/SVG/1.1/DTD/svg11.dtd">
<!-- Generated by graphviz version 5.0.0 (20220707.1540)
 -->
<!-- Title: dependencies Pages: 1 -->
<svg width="460pt" height="247pt"
 viewBox="0.00 0.00 460.00 246.80" xmlns="http://www.w3.org/2000/svg" xmlns:xlink="http://www.w3.org/1999/xlink">
<g id="graph0" class="graph" transform="scale(1 1) rotate(0) translate(4 242.8)">
<title>dependencies</title>
<polygon fill="white" stroke="transparent" points="-4,4 -4,-242.8 456,-242.8 456,4 -4,4"/>
<text text-anchor="middle" x="226" y="-8.2" font-family="sans-serif" font-size="14.00">dependencies</text>
<g id="clust1" class="cluster">
<title>cluster_RefreshTokenModule</title>
<polygon fill="none" stroke="black" stroke-dasharray="1,5" points="8,-32.8 8,-230.8 444,-230.8 444,-32.8 8,-32.8"/>
</g>
<g id="clust4" class="cluster">
<title>cluster_RefreshTokenModule_exports</title>
<polygon fill="none" stroke="black" points="149,-170.8 149,-222.8 305,-222.8 305,-170.8 149,-170.8"/>
</g>
<g id="clust6" class="cluster">
<title>cluster_RefreshTokenModule_providers</title>
<polygon fill="none" stroke="black" points="16,-40.8 16,-92.8 436,-92.8 436,-40.8 16,-40.8"/>
</g>
<!-- RefreshTokenService  -->
<g id="node1" class="node">
<title>RefreshTokenService </title>
<polygon fill="#fb8072" stroke="black" points="297.28,-214.8 156.72,-214.8 156.72,-178.8 297.28,-178.8 297.28,-214.8"/>
<text text-anchor="middle" x="227" y="-192.6" font-family="Times,serif" font-size="14.00">RefreshTokenService </text>
</g>
<!-- RefreshTokenModule -->
<g id="node2" class="node">
<title>RefreshTokenModule</title>
<polygon fill="#8dd3c7" stroke="black" points="296.36,-149.8 293.36,-153.8 272.36,-153.8 269.36,-149.8 157.64,-149.8 157.64,-113.8 296.36,-113.8 296.36,-149.8"/>
<text text-anchor="middle" x="227" y="-127.6" font-family="Times,serif" font-size="14.00">RefreshTokenModule</text>
</g>
<!-- RefreshTokenModule&#45;&gt;RefreshTokenService  -->
<g id="edge1" class="edge">
<title>RefreshTokenModule&#45;&gt;RefreshTokenService </title>
<path fill="none" stroke="black" stroke-dasharray="5,2" d="M227,-149.91C227,-149.91 227,-168.79 227,-168.79"/>
<polygon fill="black" stroke="black" points="223.5,-168.79 227,-178.79 230.5,-168.79 223.5,-168.79"/>
</g>
<!-- RefreshTokenService -->
<g id="node3" class="node">
<title>RefreshTokenService</title>
<ellipse fill="#fdb462" stroke="black" cx="333" cy="-66.8" rx="94.89" ry="18"/>
<text text-anchor="middle" x="333" y="-62.6" font-family="Times,serif" font-size="14.00">RefreshTokenService</text>
</g>
<!-- RefreshTokenService&#45;&gt;RefreshTokenModule -->
<g id="edge2" class="edge">
<title>RefreshTokenService&#45;&gt;RefreshTokenModule</title>
<path fill="none" stroke="black" d="M267.37,-79.95C267.37,-79.95 267.37,-103.49 267.37,-103.49"/>
<polygon fill="black" stroke="black" points="263.87,-103.49 267.37,-113.49 270.87,-103.49 263.87,-103.49"/>
</g>
<!-- RefreshTokenStrategy -->
<g id="node4" class="node">
<title>RefreshTokenStrategy</title>
<ellipse fill="#fdb462" stroke="black" cx="122" cy="-66.8" rx="97.84" ry="18"/>
<text text-anchor="middle" x="122" y="-62.6" font-family="Times,serif" font-size="14.00">RefreshTokenStrategy</text>
</g>
<!-- RefreshTokenStrategy&#45;&gt;RefreshTokenModule -->
<g id="edge3" class="edge">
<title>RefreshTokenStrategy&#45;&gt;RefreshTokenModule</title>
<path fill="none" stroke="black" d="M188.75,-80.27C188.75,-80.27 188.75,-103.66 188.75,-103.66"/>
<polygon fill="black" stroke="black" points="185.25,-103.66 188.75,-113.66 192.25,-103.66 185.25,-103.66"/>
</g>
</g>
</svg>
